<svg xmlns="http://www.w3.org/2000/svg">
	<symbol id="home" width="1em" height="1em" viewBox="0 0 24 24" fill="currentColor">
		<path d="M12,5.69l5,4.5V18H15V12H9v6H7V10.19l5-4.5M12,3,2,12H5v8h6V14h2v6h6V12h3L12,3Z" />
	</symbol>
	<symbol id="hidden" width="1em" height="1em" viewBox="0 0 24 24">
		<g id="Outline" transform="translate(2.419 3.411)" fill="currentColor">
			<path d="M11.617,5.789a8.741,8.741,0,0,1,7.891,4.921A8.63,8.63,0,0,1,17.351,13.5l1.261,1.261a10.558,10.558,0,0,0,2.845-4.053,10.587,10.587,0,0,0-13.1-6.2L9.836,5.986A9.043,9.043,0,0,1,11.617,5.789Z" transform="translate(-1.775 -2.613)" />
			<path d="M10.93,7.125l1.852,1.852a2.235,2.235,0,0,1,1.145,1.145l1.852,1.852a4.186,4.186,0,0,0,.125-.957A4.011,4.011,0,0,0,11.887,7,3.8,3.8,0,0,0,10.93,7.125Z" transform="translate(-2.046 -2.929)" />
			<path d="M1.9,3.72l2.4,2.4A10.5,10.5,0,0,0,1,10.547a10.581,10.581,0,0,0,9.841,6.71,10.494,10.494,0,0,0,3.865-.734l3.06,3.06,1.261-1.261L3.165,2.45Zm6.71,6.71,2.335,2.335a.449.449,0,0,1-.107.018A2.237,2.237,0,0,1,8.6,10.547C8.6,10.5,8.613,10.475,8.613,10.43ZM5.572,7.388,7.137,8.954a4.116,4.116,0,0,0-.322,1.592,4.031,4.031,0,0,0,5.609,3.7l.877.877a9.333,9.333,0,0,1-2.46.34A8.741,8.741,0,0,1,2.95,10.547,8.859,8.859,0,0,1,5.572,7.388Z" transform="translate(-1 -2.45)" />
		</g>
	</symbol>
	<symbol id="mark-rectangle" width="1em" height="1em" viewBox="0 0 24 24">
		<g stroke="currentColor" stroke-width="2px" fill="none" transform="translate(3.818 3.818)">
			<rect stroke="none" width="16.364" height="16.364" />
			<rect fill="none" x="1" y="1" width="14.364" height="14.364" />
		</g>
	</symbol>
	<symbol id="mark-ellipse" width="1em" height="1em" viewBox="0 0 24 24">
		<g stroke="currentColor" stroke-width="2px" fill="none" transform="translate(1.636 5.455)">
			<ellipse stroke="none" cx="10.364" cy="6.818" rx="10.364" ry="6.818" />
			<ellipse fill="none" cx="10.364" cy="6.818" rx="9.364" ry="5.818" />
		</g>
	</symbol>
	<symbol id="mark-curves" width="1em" height="1em" viewBox="0 0 24 24">
		<path stroke="currentColor" stroke-width="2px" fill="none" d="M3042.132-1715.756s1.074-8.15,6.135-3.776,6.586-4,7.839-6.478,1.542,6.881,3.587,6.478,2.437,3.776,2.437,3.776" transform="translate(-3040 1733.02)" />
	</symbol>
	<symbol id="mark-text" width="1em" height="1em" viewBox="0 0 24 24">
		<path fill="currentColor" d="M5,4V7.091h5.667V19.455h3.091V7.091h5.667V4Z" transform="translate(0.544 0.931)" />
	</symbol>
	<symbol id="measure-length" width="1em" height="1em" viewBox="0 0 24 24" fill="currentColor">
		<g transform="translate(4067.845 -592.818)">
			<rect width="19.374" height="1.978" transform="translate(-4065.684 604.316)" />
			<rect width="1.835" height="7.998" transform="translate(-4066.039 601.279)" />
			<rect width="1.835" height="7.998" transform="translate(-4047.572 601.279)" />
		</g>
	</symbol>
	<symbol id="measure-angle" width="1em" height="1em" viewBox="0 0 24 24" fill="currentColor">
		<g transform="translate(3090.401 -362.333)" stroke-miterlimit="10" stroke-width="1.5px" stroke="currentColor">
			<path d="M-3070.248,380.567h-14.3a.16.16,0,0,1-.162-.158V366.42a.16.16,0,0,1,.162-.158.16.16,0,0,1,.161.158v13.831h14.137a.16.16,0,0,1,.161.158.16.16,0,0,1-.161.158Zm0,0" />
			<path d="M-3076.772,701.4a.162.162,0,0,1-.161-.161,7.542,7.542,0,0,0-7.534-7.534.162.162,0,0,1-.162-.161.162.162,0,0,1,.162-.161,7.827,7.827,0,0,1,3.058.617,7.836,7.836,0,0,1,2.5,1.684,7.821,7.821,0,0,1,1.684,2.5,7.8,7.8,0,0,1,.617,3.058.161.161,0,0,1-.161.161Zm0,0" transform="translate(-0.077 -320.834)" />
		</g>
		<rect width="2" height="16" transform="translate(4.846 3)" />
		<rect width="2" height="17" transform="translate(21.846 17) rotate(90)" />
	</symbol>
	<symbol id="measure-area" width="1em" height="1em" viewBox="0 0 24 24" fill="currentColor" stroke="currentColor">
		<path stroke-width="0.5px" d="M-1023.908,428.818a.526.526,0,0,0,.526-.526v-2.78a.526.526,0,0,0-.526-.526h-2.781a.526.526,0,0,0-.526.526v.864h-1.708a.526.526,0,0,0-.161,0h-7.3v-.864a.526.526,0,0,0-.526-.526h-2.781a.526.526,0,0,0-.526.526v2.78a.526.526,0,0,0,.526.526h.864v9.172h-.864a.526.526,0,0,0-.526.526v2.78a.526.526,0,0,0,.526.526h2.781a.526.526,0,0,0,.526-.526v-.864h9.171v.864a.526.526,0,0,0,.526.526h2.781a.526.526,0,0,0,.526-.526v-2.78a.526.526,0,0,0-.526-.526h-.864v-7.38a.49.49,0,0,0,0-.054v-1.738Zm-2.255-2.78h1.729v1.728h-1.729Zm-11.614,6.479a.524.524,0,0,0,.087-.07l5.018-5.018h2.391l-7.5,7.5Zm-1.39-6.479h1.729v.844c0,.007,0,.013,0,.02s0,.013,0,.02v.844h-1.729Zm2.255,2.78a.526.526,0,0,0,.526-.526v-.864h2.227l-3.618,3.617v-2.227Zm-.864,7.595,8.985-8.985h1.577v.645l-9.917,9.917h-.644Zm-1.39,4.357v-1.728h1.729v.844c0,.007,0,.013,0,.02s0,.013,0,.02v.844h-1.729Zm13.343-6.555-5.038,5.038a.53.53,0,0,0-.093.126h-2.395l7.526-7.526Zm1.391,6.555h-1.729v-1.728h1.729Zm-2.255-2.78a.526.526,0,0,0-.526.526v.864h-2.286l3.677-3.676v2.286Zm.864-7.624-9.015,9.014h-1.547v-.648l9.914-9.914h.648Zm0,0" transform="translate(1044.041 -421.822)" />
	</symbol>
	<symbol id="measure-point" width="1em" height="1em" viewBox="0 0 24 24" fill="currentColor">
		<g transform="translate(2039.756 -354.516)">
			<g transform="translate(-2031.606 365.149)">
				<g transform="translate(0.296 0.342)">
					<path d="M-1745.673,714.2l-3.315-1.914v-3.826l3.315-1.914,3.315,1.914v3.826Zm-2.906-2.149,2.906,1.677,2.906-1.677v-3.354l-2.906-1.677-2.906,1.677Zm0,0" transform="translate(1749.156 -706.348)" />
					<path d="M-1752.005,707.079l-3.483-2.011v-4.02l3.483-2.011,3.482,2.011v4.02Zm-3.148-2.2,3.148,1.818,3.147-1.818v-3.633l-3.147-1.818-3.148,1.818Zm3.148,1.732-3.074-1.774v-3.547l3.074-1.774,3.074,1.774v3.547Zm-2.739-1.967,2.739,1.58,2.739-1.58v-3.16l-2.739-1.58-2.739,1.58Z" transform="translate(1755.488 -699.037)" />
				</g>
				<g transform="translate(0 0)">
					<path d="M-1756.877,701.6l-3.611-2.085v-4.169l3.611-2.085,3.612,2.085v4.169Zm-2.609-2.663,2.609,1.506,2.61-1.506v-3.012l-2.61-1.506-2.609,1.506Z" transform="translate(1760.655 -693.07)" />
					<path d="M-1763.209,694.484l-3.779-2.182V687.94l3.779-2.182,3.779,2.182V692.3Zm-3.444-2.376,3.444,1.989,3.444-1.989v-3.975l-3.444-1.989-3.444,1.989Zm3.444,1.219-2.777-1.6V688.52l2.777-1.6,2.777,1.6v3.205Zm-2.442-1.8,2.442,1.409,2.442-1.409v-2.818l-2.442-1.409-2.442,1.409Z" transform="translate(1766.988 -685.758)" />
				</g>
			</g>
			<g transform="translate(-2036.659 368.944)">
				<g transform="translate(0.297 0.296)">
					<path d="M-1928.493,856.118a.209.209,0,0,1-.1-.027l-8.058-4.653-8.058,4.653a.2.2,0,0,1-.28-.076.2.2,0,0,1,.076-.28l8.16-4.712a.2.2,0,0,1,.2,0l8.16,4.712a.207.207,0,0,1,.075.28.205.205,0,0,1-.178.1Zm0,0" transform="translate(1945.187 -850.829)" />
					<path d="M-1951.149,849.961a.376.376,0,0,1-.1-.013.375.375,0,0,1-.225-.173.369.369,0,0,1-.038-.281.371.371,0,0,1,.174-.229l8.16-4.712a.372.372,0,0,1,.373,0l8.16,4.712a.376.376,0,0,1,.138.507l0,0a.371.371,0,0,1-.322.184.372.372,0,0,1-.184-.048l-7.976-4.605-7.974,4.6A.365.365,0,0,1-1951.149,849.961Zm8.159-5.123a.036.036,0,0,0-.018,0l-8.16,4.712a.04.04,0,0,0-.018.024.033.033,0,0,0,0,.027.039.039,0,0,0,.024.019.033.033,0,0,0,.027,0l8.142-4.7,8.142,4.7a.038.038,0,0,0,.018,0,.038.038,0,0,0,.033-.018.039.039,0,0,0-.015-.052l-8.16-4.712A.038.038,0,0,0-1942.99,844.837Z" transform="translate(1951.523 -844.503)" />
				</g>
				<g transform="translate(0 0)">
					<path d="M-1956.022,845.22a.5.5,0,0,1-.133-.018.5.5,0,0,1-.3-.233.494.494,0,0,1-.051-.378.5.5,0,0,1,.234-.307l8.161-4.712a.5.5,0,0,1,.5,0l8.159,4.711a.506.506,0,0,1,.186.682l0,.006a.5.5,0,0,1-.433.247.507.507,0,0,1-.247-.064l0,0-7.909-4.567-7.91,4.567A.492.492,0,0,1-1956.022,845.22Zm-.048-.581h0Z" transform="translate(1956.693 -839.336)" />
					<path d="M-1962.357,839.054a.668.668,0,0,1-.177-.024.668.668,0,0,1-.4-.31.663.663,0,0,1-.069-.505.667.667,0,0,1,.312-.409l8.161-4.713a.668.668,0,0,1,.67,0l8.159,4.711a.674.674,0,0,1,.248.909l0,.008a.666.666,0,0,1-.578.331.675.675,0,0,1-.329-.086l0,0-7.826-4.519-7.826,4.519A.662.662,0,0,1-1962.357,839.054Zm8.158-5.716a.33.33,0,0,0-.166.045l-8.161,4.713a.333.333,0,0,0-.156.2.328.328,0,0,0,.034.251.334.334,0,0,0,.2.156.331.331,0,0,0,.253-.033l7.994-4.616,8,4.617a.336.336,0,0,0,.164.042.333.333,0,0,0,.289-.165l0,0a.338.338,0,0,0-.125-.454l-8.159-4.711A.332.332,0,0,0-1954.2,833.338Zm-8.125,5.115-.163-.293.164.292Z" transform="translate(1963.028 -833.003)" />
				</g>
			</g>
			<g transform="translate(-2028.495 359.728)">
				<g transform="translate(0.296 0.296)">
					<rect width="0.409" height="9.422" transform="translate(0.168 0.168)" />
					<path d="M-1634.057,496.672h-.744v-9.757h.744Zm-.409-.335h.074V487.25h-.074Z" transform="translate(1634.801 -486.915)" />
				</g>
				<g transform="translate(0 0)">
					<rect width="1.002" height="10.015" transform="translate(0.168 0.168)" />
					<path d="M-1644.964,485.766h-1.337v-10.35h1.337Zm-1-.335h.667v-9.68h-.667Z" transform="translate(1646.301 -475.416)" />
				</g>
			</g>
			<g transform="translate(-2029.862 356.667)">
				<path d="M-1697.282,356.667l-2.035,3.525h4.07Z" transform="translate(1699.317 -356.667)" />
			</g>
			<g transform="translate(-2021.096 372.245)">
				<path d="M-1355.139,964.649l-1.922-3.588-2.146,3.458Z" transform="translate(1359.206 -961.062)" />
			</g>
			<g transform="translate(-2038.607 372.285)">
				<path d="M-2038.607,966.128h4.07l-2.035-3.524Z" transform="translate(2038.607 -962.604)" />
			</g>
		</g>
	</symbol>
	<symbol id="rotation-cw" width="1em" height="1em" viewBox="0 0 24 24" fill="currentColor">
		<path d="M17.65,6.35A8,8,0,1,0,19.73,14H17.65A6,6,0,1,1,12,6a5.915,5.915,0,0,1,4.22,1.78L13,11h7V4Z" />
	</symbol>
	<symbol id="rotation-anticw" width="1em" height="1em" viewBox="0 0 24 24" fill="currentColor">
		<path d="M6.36,6.35A8,8,0,1,1,4.28,14H6.36a6,6,0,1,0,5.65-8A5.915,5.915,0,0,0,7.79,7.78L11.01,11h-7V4Z" />
	</symbol>
	<symbol id="setting" width="1em" height="1em" viewBox="0 0 24 24" fill="currentColor">
		<path d="M19.43,12.98A7.793,7.793,0,0,0,19.5,12a7.793,7.793,0,0,0-.07-.98l2.11-1.65a.5.5,0,0,0,.12-.64l-2-3.46a.5.5,0,0,0-.44-.25.467.467,0,0,0-.17.03l-2.49,1a7.306,7.306,0,0,0-1.69-.98l-.38-2.65A.488.488,0,0,0,14,2H10a.488.488,0,0,0-.49.42L9.13,5.07a7.683,7.683,0,0,0-1.69.98l-2.49-1a.566.566,0,0,0-.18-.03.5.5,0,0,0-.43.25l-2,3.46a.493.493,0,0,0,.12.64l2.11,1.65A7.931,7.931,0,0,0,4.5,12a7.931,7.931,0,0,0,.07.98L2.46,14.63a.5.5,0,0,0-.12.64l2,3.46a.5.5,0,0,0,.44.25.467.467,0,0,0,.17-.03l2.49-1a7.306,7.306,0,0,0,1.69.98l.38,2.65A.488.488,0,0,0,10,22h4a.488.488,0,0,0,.49-.42l.38-2.65a7.683,7.683,0,0,0,1.69-.98l2.49,1a.566.566,0,0,0,.18.03.5.5,0,0,0,.43-.25l2-3.46a.5.5,0,0,0-.12-.64Zm-1.98-1.71a5.343,5.343,0,0,1,.05.73c0,.21-.02.43-.05.73l-.14,1.13.89.7,1.08.84-.7,1.21-1.27-.51-1.04-.42-.9.68a5.857,5.857,0,0,1-1.25.73l-1.06.43-.16,1.13L12.7,20H11.3l-.19-1.35-.16-1.13-1.06-.43a5.674,5.674,0,0,1-1.23-.71l-.91-.7-1.06.43-1.27.51-.7-1.21,1.08-.84.89-.7-.14-1.13c-.03-.31-.05-.54-.05-.74s.02-.43.05-.73l.14-1.13-.89-.7L4.72,8.6l.7-1.21,1.27.51,1.04.42.9-.68a5.857,5.857,0,0,1,1.25-.73l1.06-.43.16-1.13L11.3,4h1.39l.19,1.35.16,1.13,1.06.43a5.674,5.674,0,0,1,1.23.71l.91.7,1.06-.43,1.27-.51.7,1.21-1.07.85-.89.7Z" />
		<path d="M12,8a4,4,0,1,0,4,4A4,4,0,0,0,12,8Zm0,6a2,2,0,1,1,2-2A2.006,2.006,0,0,1,12,14Z" />
	</symbol>
	<symbol id="fullscreen" width="1em" height="1em" viewBox="0 0 24 24" fill="currentColor">
		<path d="M7.608,16.738H5v6.521h6.521V20.65H7.608ZM5,11.521H7.608V7.608h3.913V5H5ZM20.65,20.65H16.738v2.608h6.521V16.738H20.65ZM16.738,5V7.608H20.65v3.913h2.608V5Z" transform="translate(-2.129 -2.129)" />
	</symbol>
	<symbol id="fullscreen-exit" width="1em" height="1em" viewBox="0 0 24 24" fill="currentColor">
		<path d="M5,18.686H8.732v3.732h2.488V16.2H5ZM8.732,8.732H5v2.488h6.221V5H8.732ZM16.2,22.418h2.488V18.686h3.732V16.2H16.2ZM18.686,8.732V5H16.2v6.221h6.221V8.732Z" transform="translate(-1.709 -1.709)" />
	</symbol>
</svg>
